<?xml version="1.0" encoding="UTF-8" standalone="no"?>
<svg
   version="1.1"
   viewBox="0 0 2104147.8 645772.62"
   id="svg226"
   width="2104147.8"
   height="645772.62"
   xmlns="http://www.w3.org/2000/svg"
   xmlns:svg="http://www.w3.org/2000/svg">
  <defs
     id="defs1">
    <style
       id="style1">
      .cls-1, .cls-2, .cls-3, .cls-4, .cls-5, .cls-6, .cls-7, .cls-8, .cls-9, .cls-10, .cls-11, .cls-12, .cls-13 {
        stroke-width: 0px;
      }

      .cls-1, .cls-11 {
        fill: #0a23d9;
      }

      .cls-2 {
        fill: #d34435;
      }

      .cls-3 {
        fill: #2c4171;
      }

      .cls-14 {
        fill: #b2b4b7;
        font-size: 15px;
        letter-spacing: .2em;
      }

      .cls-14, .cls-15, .cls-16, .cls-17 {
        font-family: FreightSansProMedium-Regular, 'FreightSans Pro';
      }

      .cls-4 {
        fill: #b2befa;
        opacity: .28;
      }

      .cls-18 {
        font-family: FreightBigProMedium-Italic, 'FreightBig Pro';
        font-size: 17px;
        text-decoration: underline;
      }

      .cls-18, .cls-19, .cls-12, .cls-13 {
        fill: #fff;
      }

      .cls-18, .cls-20 {
        font-style: italic;
      }

      .cls-21 {
        stroke: #ea795d;
        stroke-linecap: round;
        stroke-linejoin: round;
        stroke-width: 3px;
      }

      .cls-21, .cls-22 {
        fill: none;
      }

      .cls-5, .cls-20, .cls-15, .cls-23, .cls-16, .cls-17 {
        fill: #1a2a4b;
      }

      .cls-6 {
        fill: #ea795d;
      }

      .cls-24 {
        mix-blend-mode: multiply;
      }

      .cls-7 {
        fill: #1d3263;
      }

      .cls-19 {
        stroke-width: .62px;
      }

      .cls-19, .cls-22 {
        stroke: #1a2a4b;
        stroke-miterlimit: 10;
      }

      .cls-20 {
        font-family: FreightSansProBook-Italic, 'FreightSans Pro';
        font-size: 17.91px;
      }

      .cls-8 {
        fill: #58bcc9;
      }

      .cls-15 {
        font-size: 58.8px;
      }

      .cls-9 {
        fill: #9ca8be;
      }

      .cls-25, .cls-11 {
        opacity: .21;
      }

      .cls-26 {
        opacity: .18;
      }

      .cls-10 {
        fill: #e8b4aa;
      }

      .cls-27 {
        isolation: isolate;
      }

      .cls-22 {
        stroke-width: .33px;
      }

      .cls-23 {
        font-family: Ebrima, Ebrima;
        font-size: 20px;
      }

      .cls-16 {
        letter-spacing: .2em;
      }

      .cls-16, .cls-17 {
        font-size: 21px;
      }

      .cls-17 {
        letter-spacing: .2em;
      }

      .cls-13 {
        opacity: .87;
      }

      .cls-28 {
        letter-spacing: .28em;
      }

      .cls-29 {
        letter-spacing: .28em;
      }

      .cls-30 {
        letter-spacing: .28em;
      }
    </style>
  </defs>
  <g
     class="cls-27"
     id="g226"
     transform="translate(174868.88,-230914.75)">
    <g
       id="Laag_5"
       data-name="Laag 5"
       style="display:inline">
      <path
         class="cls-6"
         d="m 1498.33,609.89 v 0 c -5.88,-5.88 -14.22,-9.16 -22.94,-8.97 -8.31,0.17 -15.81,3.44 -21.12,9.21 -48.34,52.49 -98.33,106.77 -158.65,144.06 -7.51,4.65 -15.18,9.02 -22.77,12.99 -3.72,1.95 -7.47,3.82 -11.15,5.58 -1.88,0.9 -3.76,1.77 -5.65,2.63 -1.51,0.69 -3.03,1.36 -4.56,2.03 v 0 c -0.09,0.05 -0.19,0.09 -0.29,0.13 -21.68,9.05 -39.23,14.16 -55.23,16.08 -16.03,1.92 -30.88,0.45 -44.15,-4.37 -0.26,-0.11 -0.62,-0.26 -1.01,-0.42 -0.62,-0.26 -1.36,-0.56 -1.63,-0.68 -1.71,-0.83 -3.27,-1.63 -4.77,-2.47 -2.97,-1.66 -5.47,-3.24 -7.65,-4.83 -0.55,-0.55 -1.1,-1.02 -1.54,-1.41 -0.83,-0.71 -1.34,-1.16 -1.69,-1.45 -0.9,-0.85 -1.8,-1.74 -2.68,-2.64 -0.28,-0.32 -0.98,-1.12 -1.64,-1.86 -0.39,-0.44 -0.78,-0.86 -1.07,-1.17 -0.09,-0.1 -0.19,-0.2 -0.28,-0.29 -0.69,-0.98 -1.42,-2.13 -2.27,-3.53 -5.93,-9.81 -7.88,-23.83 -5.23,-37.5 3.65,-18.87 10.03,-36.44 17.99,-57.46 15.56,-41.08 26.53,-81.99 32.61,-121.59 7.58,-49.38 9.52,-88.86 6.1,-124.28 -4.56,-47.17 -18.79,-81.17 -43.53,-103.94 -26.26,-24.18 -61.83,-34.03 -100.15,-27.74 -34.32,5.63 -67.95,23.68 -92.27,49.52 -44.86,47.67 -56.05,111.44 -66.87,173.11 -2.39,13.61 -4.86,27.69 -7.63,41.07 -6.05,29.14 -14,60.01 -31.11,88.33 -8.55,14.16 -15.7,22.5 -28.31,33.08 -0.33,0.28 -0.61,0.51 -0.85,0.73 l -0.55,0.4 c -1.82,1.32 -3.42,2.43 -4.91,3.4 -2.71,1.78 -5.54,3.47 -8.39,5.01 -2.41,1.3 -5.02,2.59 -7.76,3.82 -0.23,0.1 -0.46,0.19 -0.57,0.23 -0.79,0.28 -1.58,0.56 -2.37,0.84 -1.77,0.64 -3.45,1.24 -5.12,1.76 -5.33,1.66 -11.16,3.02 -17.82,4.15 -0.52,0.08 -1.13,0.17 -1.46,0.2 -0.59,0.05 -1.19,0.11 -1.78,0.16 -1.07,0.1 -2.14,0.2 -3.21,0.27 -3.85,0.26 -7.81,0.37 -11.76,0.31 -3.25,-0.04 -6.57,-0.2 -9.88,-0.46 -1.88,-0.15 -3.76,-0.35 -5.74,-0.56 -8.1,-1.36 -15.2,-2.94 -21.7,-4.83 -3.2,-0.93 -6.46,-1.98 -9.69,-3.13 -1.19,-0.42 -2.36,-0.87 -3.54,-1.32 -0.79,-0.3 -1.57,-0.6 -2.36,-0.89 l -0.64,-0.24 c -0.1,-0.04 -0.21,-0.09 -0.33,-0.15 -6.98,-3.08 -13.74,-6.57 -20.1,-10.37 -2.23,-1.33 -4.46,-2.72 -6.64,-4.16 63.12,-31.5 119.59,-81.06 160.05,-140.73 22.8,-33.62 37.71,-69.34 43.12,-103.31 6.22,-39.07 1.49,-76.43 -14.07,-111.04 -14.99,-33.33 -40.15,-61.01 -70.84,-77.93 -33.09,-18.25 -69.17,-22.54 -104.33,-12.41 -93.87,27.04 -129,125.97 -141.58,182.53 -12.88,57.9 -20.37,143.86 17.08,224.59 1.45,3.12 3,6.25 4.64,9.38 -18.27,2.96 -36.74,3.51 -57.25,1.75 -2.25,-0.19 -4.05,-0.46 -8.4,-1.23 -4.31,-0.77 -8.71,-1.69 -13.07,-2.75 -9.21,-2.23 -18.89,-5.18 -29.58,-9.01 0,0 0,0 0,0 -1.23,-17.2 -5.22,-33.81 -11.89,-49.46 -15.04,-35.28 -44.15,-62.22 -84.21,-77.92 -32.5,-12.74 -69.83,-16.69 -110.96,-11.75 -34.07,4.1 -70.03,14.13 -106.86,29.83 -74.67,31.81 -136.85,83.2 -182.68,124.41 -26.51,23.84 -52.49,49.2 -76.6,73.05 -6.48,6.41 -9.72,14.57 -9.14,22.98 0.51,7.35 3.86,14.5 9.42,20.13 5.6,5.66 12.77,9.11 20.2,9.72 8.5,0.69 16.77,-2.48 23.29,-8.92 52.55,-51.97 104.4,-101.82 160.93,-140.34 15.28,-10.41 30.59,-19.81 45.51,-27.94 15.41,-8.39 31.14,-15.8 44.29,-20.87 33.06,-12.74 65.87,-20.14 94.89,-21.4 7.73,-0.33 15.46,-0.27 22.98,0.18 10.07,0.61 11.5,0.74 21.03,2.69 18.04,3.7 28.47,7.69 41.35,15.83 11.46,7.24 21,17.98 27.51,30.65 -35.19,-14.12 -72.54,-25.85 -112.18,-23.53 -41.46,2.43 -78.48,20.08 -101.56,48.41 -27.74,34.05 -32.73,77.82 -13.34,117.09 17.38,35.2 53.93,60.76 95.39,66.72 38.9,5.59 80.02,-3.08 115.81,-24.38 35.5,-21.14 62.92,-52.98 77.21,-89.66 0.4,-1.02 0.79,-2.06 1.17,-3.1 32.43,10.36 62.64,14.81 92.14,13.58 21.15,-0.88 42.9,-4.36 64.73,-10.37 30.95,30.75 70.45,51.66 111.77,59.06 36.19,6.48 70.74,3.6 99.91,-8.35 33.05,-13.53 61.32,-38.04 81.75,-70.88 28.16,-45.25 37.32,-96.87 46.18,-146.8 3.66,-20.6 7.44,-41.91 12.5,-62.26 2.23,-8.98 4.56,-17.11 7.11,-24.85 3.16,-9.6 5.65,-15.99 8.87,-22.79 3.87,-8.17 8.2,-15.9 12.88,-23 0.59,-0.9 1.2,-1.78 1.82,-2.66 0.64,-0.92 1.28,-1.84 1.9,-2.77 0.17,-0.26 0.33,-0.49 0.46,-0.7 0.16,-0.18 0.33,-0.39 0.53,-0.62 2.56,-3 5.34,-6.17 8.24,-9.05 2.37,-2.36 4.89,-4.68 7.49,-6.89 0.53,-0.45 1.07,-0.89 1.61,-1.33 l 0.43,-0.35 v 0 c 0.75,-0.52 1.56,-1.13 2.48,-1.82 l 0.62,-0.47 c 6.2,-4.33 12.7,-8.12 19.33,-11.27 0.69,-0.33 1.38,-0.65 2.08,-0.97 0.28,-0.09 0.56,-0.19 0.85,-0.3 0.62,-0.24 1.39,-0.54 2,-0.78 0.4,-0.16 0.72,-0.29 0.76,-0.3 3.15,-1.14 6.34,-2.15 9.49,-3 2.22,-0.6 4.5,-1.07 6.91,-1.57 0.98,-0.2 1.96,-0.41 2.94,-0.62 0.21,-0.05 0.41,-0.09 0.59,-0.13 0.12,0 0.26,-0.02 0.4,-0.03 0.62,-0.05 1.24,-0.1 1.86,-0.15 1.4,-0.11 2.73,-0.22 4.02,-0.27 3.16,-0.13 6.3,-0.1 9.24,0.09 0.27,0.02 0.85,0.09 1.46,0.16 1.02,0.12 1.72,0.2 2.25,0.24 l 0.22,0.04 c 0.31,0.05 0.62,0.1 0.92,0.16 2.95,0.6 5.86,1.37 8.65,2.29 0.24,0.09 0.69,0.27 1.17,0.46 0.55,0.22 1.13,0.45 1.59,0.63 0.2,0.08 0.4,0.15 0.6,0.21 1.1,0.54 2.01,1 2.84,1.46 2.14,1.18 4.21,2.45 6.14,3.8 0.25,0.24 0.51,0.48 0.8,0.72 0.57,0.48 1.27,1.06 1.82,1.51 0.26,0.21 0.48,0.39 0.61,0.5 1.18,1.1 2.36,2.26 3.57,3.54 0.71,0.75 1.45,1.57 2.25,2.5 0.06,0.09 0.13,0.19 0.19,0.28 0.17,0.24 0.42,0.57 0.7,0.94 0.49,0.65 1.08,1.42 1.48,1.94 l 0.26,0.34 c 2,2.99 3.9,6.26 5.64,9.72 2.51,4.97 4.23,9.79 6.36,17.77 0.93,3.49 1.77,7.16 2.49,10.93 0.29,1.49 0.56,2.98 0.81,4.47 0.19,1.12 0.36,2.24 0.52,3.36 0.05,0.4 0.12,1.02 0.23,1.87 1.58,15.97 2,33.42 1.27,53.35 -1.48,40.69 -7.48,79.91 -18.35,119.91 -4.8,17.65 -11.04,36.47 -19.66,59.23 l -0.14,0.36 c -6.94,18.33 -14.12,37.28 -17.64,57.24 -4.57,25.9 -3.41,47.54 3.53,66.17 7.5,20.11 20.61,37.09 38.98,50.48 21.46,15.64 48.58,23.64 78.88,23.64 14.85,0 30.47,-1.92 46.56,-5.81 64.45,-15.57 126.67,-53.55 195.8,-119.56 25.51,-24.35 49.81,-50.46 74.53,-77.31 11.66,-12.66 11.56,-31.81 -0.23,-43.6 z M 377.47,682.16 c -0.1,0.19 -0.19,0.39 -0.28,0.59 -0.19,0.42 -0.44,0.99 -0.68,1.56 -0.47,1.09 -0.73,1.7 -0.88,2.05 -0.75,1.55 -1.54,3.11 -2.43,4.76 -1.72,3.21 -3.62,6.42 -5.65,9.52 -0.61,0.94 -1.25,1.86 -1.89,2.79 -0.45,0.65 -0.9,1.31 -1.35,1.96 -0.31,0.46 -0.56,0.83 -0.76,1.15 -0.24,0.28 -0.53,0.63 -0.89,1.05 -2.9,3.49 -5.59,6.51 -8.22,9.21 -11.41,11.74 -20.51,18.34 -36.05,26.15 -12.18,6.12 -29.94,11.27 -42.23,12.24 -4.19,0.33 -8.37,0.45 -12.44,0.37 -1.75,-0.04 -3.52,-0.15 -5.4,-0.27 -0.69,-0.04 -1.39,-0.09 -2.07,-0.13 L 254.53,755 c -0.23,-0.02 -0.45,-0.03 -0.66,-0.04 -7.14,-1.04 -16.31,-3.6 -21.04,-5.88 -13.19,-6.37 -21.7,-14.06 -28.46,-25.72 -0.53,-0.91 -1.04,-1.89 -1.58,-2.93 -0.36,-0.68 -0.71,-1.36 -1.08,-2.04 -0.18,-0.33 -0.34,-0.63 -0.49,-0.88 -0.09,-0.27 -0.19,-0.58 -0.3,-0.92 -1.12,-3.32 -1.99,-6.71 -2.91,-10.31 l -0.04,-0.14 c -0.05,-0.25 -0.11,-0.63 -0.16,-0.95 -0.03,-0.19 -0.06,-0.37 -0.09,-0.53 -0.11,-1.35 -0.17,-2.8 -0.19,-4.42 0,-0.69 0.02,-1.38 0.05,-2.07 0.03,-0.7 0.05,-1.41 0.06,-2.11 0.08,-0.81 0.12,-1.35 0.15,-1.75 0.13,-0.68 0.26,-1.36 0.42,-2.04 0.62,-2.75 1.4,-5.39 2.32,-7.86 l 0.09,-0.2 c 0.13,-0.29 0.29,-0.64 0.4,-0.88 0.42,-0.75 0.82,-1.5 1.22,-2.26 0.59,-1.12 1.16,-2.17 1.74,-3.13 3.26,-5.38 5.11,-7.7 11.92,-13.76 2.42,-2.15 6.84,-5.55 14.17,-9.5 1.87,-1.01 3.89,-1.97 5.69,-2.84 0.22,-0.09 0.59,-0.24 0.92,-0.37 3.82,-1.45 7.66,-2.68 11.43,-3.64 13.22,-3.37 31.02,-3.59 47.61,-0.57 29.3,5.33 55.94,16.54 83.96,28.57 -0.67,2.14 -1.41,4.25 -2.2,6.32 z m 426.08,-301.53 0.45,1.59 -0.51,0.05 c -0.04,-0.56 -0.02,-1.1 0.06,-1.63 z M 610.16,620.9 v 0 c -7.93,-14.46 -12.47,-25.83 -17.33,-43.44 -8.56,-31 -11.05,-63.23 -7.83,-101.44 1.41,-16.77 3.47,-29.81 7.61,-48.11 4.33,-19.17 9.56,-36.47 15.98,-52.88 12.36,-31.61 34.03,-59.13 57.97,-73.64 6.47,-3.92 13.24,-7.22 18.58,-9.05 3.72,-1.27 7.42,-2.34 10.98,-3.16 0.78,-0.18 1.56,-0.34 2.34,-0.49 0.71,-0.14 1.42,-0.29 2.13,-0.44 0.64,-0.1 1.29,-0.21 1.93,-0.34 h 0.06 c 1.05,-0.12 2.09,-0.23 3.13,-0.31 3.8,-0.27 7.53,-0.34 11.09,-0.18 0.62,0.03 1.23,0.07 1.84,0.12 0.82,0.06 1.65,0.12 2.46,0.15 0.24,0 0.45,0.02 0.65,0.02 0.14,0.03 0.29,0.06 0.44,0.09 3.19,0.63 6.49,1.28 9.64,2.16 1.84,0.52 3.7,1.1 5.51,1.73 0.25,0.09 0.81,0.31 1.41,0.53 0.56,0.21 1.14,0.43 1.58,0.6 0.21,0.08 0.41,0.15 0.61,0.21 4.95,2.25 10.03,5.12 15.11,8.56 1.2,0.81 2.41,1.67 3.61,2.56 l 0.13,0.11 c 0.31,0.25 0.7,0.56 0.86,0.7 l 1.7,1.52 c 2.59,2.3 5.04,4.48 7.34,6.8 2.29,2.32 4.58,4.81 6.78,7.4 l 0.46,0.58 c 1.05,1.32 1.7,2.13 2.16,2.68 l 0.17,0.24 c 0.4,0.54 0.8,1.08 1.18,1.63 4.53,6.4 8.61,13.29 12.12,20.49 0.57,1.17 1.11,2.35 1.68,3.6 l 0.17,0.4 c 0.28,0.65 0.69,1.58 0.84,1.96 1.4,3.6 2.66,7.24 3.75,10.84 1.02,3.34 1.91,6.72 2.67,10.05 0.31,1.35 0.6,2.7 0.86,4.03 0.05,0.29 0.18,1.07 0.32,1.96 0.15,0.91 0.31,1.92 0.45,2.71 0.08,0.44 0.14,0.83 0.19,1.09 0.02,0.12 0.05,0.25 0.08,0.37 1.49,13.55 0.85,27.82 -1.84,41.32 -6.08,30.51 -19,57.96 -41.87,88.98 -36.31,49.23 -90.08,92.06 -144.87,115.61 -1.79,-2.88 -3.39,-5.62 -4.85,-8.29 z"
         id="path48" />
    </g>
    <g
       id="tekst_en_ontwerp"
       data-name="tekst en ontwerp">
      <g
         id="g110">
        <path
           class="cls-10"
           d="m 1163.82,824.42 c -0.12,0 -0.24,0 -0.36,-0.03 -6.96,-1 -13.65,-2.6 -19.88,-4.75 -1.3,-0.45 -2,-1.88 -1.54,-3.18 0.45,-1.3 1.88,-2 3.18,-1.54 5.93,2.05 12.31,3.58 18.96,4.53 1.37,0.2 2.32,1.46 2.12,2.83 -0.18,1.25 -1.25,2.15 -2.47,2.15 z m 39.86,-0.39 c -1.22,0 -2.29,-0.9 -2.47,-2.14 -0.2,-1.37 0.75,-2.63 2.12,-2.83 5.43,-0.78 11,-1.86 16.58,-3.21 0.92,-0.22 1.84,-0.45 2.75,-0.68 1.34,-0.34 2.7,0.47 3.04,1.81 0.34,1.34 -0.47,2.7 -1.81,3.04 -0.94,0.24 -1.87,0.47 -2.81,0.69 -5.72,1.38 -11.45,2.49 -17.04,3.3 -0.12,0.02 -0.24,0.03 -0.36,0.03 z m 57.49,-16.59 c -0.98,0 -1.91,-0.58 -2.31,-1.54 -0.53,-1.28 0.08,-2.74 1.35,-3.27 5.98,-2.48 12.05,-5.24 18.06,-8.2 1.24,-0.61 2.74,-0.1 3.35,1.14 0.61,1.24 0.1,2.74 -1.14,3.35 -6.1,3.01 -12.27,5.81 -18.35,8.33 -0.31,0.13 -0.64,0.19 -0.96,0.19 z m -150.23,-8.88 c -0.65,0 -1.31,-0.26 -1.8,-0.76 -4.87,-5.04 -8.99,-10.62 -12.25,-16.57 -0.66,-1.21 -0.22,-2.73 0.99,-3.39 1.21,-0.66 2.73,-0.22 3.39,0.99 3.05,5.56 6.9,10.77 11.46,15.5 0.96,0.99 0.93,2.58 -0.06,3.54 -0.49,0.47 -1.11,0.7 -1.74,0.7 z m -835.8,-11.99 c -1.31,0 -2.41,-1.02 -2.49,-2.34 -0.09,-1.38 0.96,-2.57 2.34,-2.65 6.46,-0.41 13,-1.29 19.45,-2.62 1.34,-0.28 2.67,0.59 2.95,1.94 0.28,1.35 -0.59,2.68 -1.94,2.96 -6.68,1.38 -13.46,2.3 -20.15,2.72 h -0.16 z m -39.65,-3.63 c -0.22,0 -0.44,-0.03 -0.67,-0.09 -6.6,-1.82 -13.02,-4.31 -19.08,-7.39 -1.23,-0.63 -1.72,-2.13 -1.1,-3.36 0.62,-1.23 2.13,-1.72 3.36,-1.1 5.77,2.93 11.87,5.3 18.15,7.03 1.33,0.37 2.11,1.74 1.75,3.08 -0.31,1.11 -1.31,1.84 -2.41,1.84 z m 1078.66,-3.48 c -0.82,0 -1.63,-0.41 -2.11,-1.15 -0.74,-1.16 -0.4,-2.71 0.76,-3.45 5.44,-3.47 10.99,-7.21 16.5,-11.09 1.13,-0.8 2.69,-0.53 3.48,0.6 0.8,1.13 0.53,2.69 -0.6,3.48 -5.57,3.93 -11.19,7.71 -16.69,11.22 -0.42,0.27 -0.88,0.39 -1.34,0.39 z m -981.58,-8.78 c -0.91,0 -1.79,-0.5 -2.23,-1.37 -0.62,-1.23 -0.13,-2.74 1.1,-3.36 3.16,-1.6 6.31,-3.33 9.36,-5.15 2.56,-1.53 5.12,-3.15 7.6,-4.82 1.14,-0.77 2.7,-0.47 3.47,0.67 0.77,1.14 0.47,2.7 -0.67,3.47 -2.56,1.73 -5.19,3.4 -7.84,4.98 -3.15,1.88 -6.4,3.66 -9.67,5.32 -0.36,0.18 -0.75,0.27 -1.13,0.27 z M 186.09,750.69 c -0.74,0 -1.48,-0.33 -1.97,-0.96 -3.52,-4.5 -6.54,-9.29 -9,-14.26 -0.55,-1.12 -1.08,-2.25 -1.58,-3.37 -0.56,-1.26 0,-2.74 1.27,-3.3 1.26,-0.56 2.74,0 3.3,1.27 0.47,1.06 0.97,2.13 1.49,3.18 2.3,4.66 5.15,9.17 8.45,13.4 0.85,1.09 0.66,2.66 -0.43,3.51 -0.46,0.36 -1,0.53 -1.54,0.53 z m -292.94,-3.45 c -0.64,0 -1.29,-0.25 -1.78,-0.74 -0.97,-0.98 -0.96,-2.56 0.02,-3.54 4.75,-4.7 9.5,-9.39 14.25,-14.05 0.99,-0.97 2.57,-0.95 3.54,0.03 0.97,0.99 0.95,2.57 -0.03,3.54 -4.75,4.66 -9.49,9.34 -14.24,14.04 -0.49,0.48 -1.12,0.72 -1.76,0.72 z m 1469.33,-3.25 c -0.72,0 -1.43,-0.31 -1.93,-0.91 -0.88,-1.06 -0.73,-2.64 0.34,-3.52 4.99,-4.11 10.09,-8.46 15.16,-12.92 1.04,-0.91 2.62,-0.81 3.53,0.23 0.91,1.04 0.81,2.62 -0.23,3.53 -5.12,4.49 -10.26,8.87 -15.28,13.02 -0.47,0.38 -1.03,0.57 -1.59,0.57 z m -271.88,-0.02 h -0.08 c -1.38,-0.04 -2.46,-1.2 -2.42,-2.58 0.2,-6.22 0.94,-13.02 2.21,-20.22 0.24,-1.36 1.54,-2.27 2.9,-2.03 1.36,0.24 2.27,1.54 2.03,2.9 -1.23,6.96 -1.95,13.53 -2.14,19.51 -0.04,1.35 -1.15,2.42 -2.5,2.42 z m -710.86,-9.78 c -0.58,0 -1.17,-0.2 -1.65,-0.62 -1.04,-0.91 -1.14,-2.49 -0.23,-3.53 4.33,-4.95 8.34,-10.21 11.92,-15.62 0.76,-1.15 2.31,-1.47 3.46,-0.71 1.15,0.76 1.47,2.31 0.71,3.46 -3.7,5.6 -7.85,11.04 -12.33,16.16 -0.49,0.56 -1.19,0.85 -1.88,0.85 z m 370.39,-0.65 c -1.33,0 -2.43,-1.05 -2.5,-2.39 -0.06,-1.38 1,-2.55 2.38,-2.61 6.68,-0.3 13.24,-1.05 19.51,-2.23 1.36,-0.25 2.66,0.64 2.92,2 0.25,1.36 -0.64,2.66 -2,2.92 -6.49,1.22 -13.29,2 -20.2,2.31 h -0.12 z m -39.8,-2.98 c -0.15,0 -0.31,-0.01 -0.47,-0.04 -6.57,-1.24 -13.18,-2.91 -19.67,-4.97 -1.32,-0.42 -2.05,-1.82 -1.63,-3.14 0.42,-1.32 1.82,-2.05 3.14,-1.63 6.3,2 12.72,3.62 19.09,4.82 1.36,0.26 2.25,1.56 1.99,2.92 -0.23,1.2 -1.28,2.04 -2.45,2.04 z m 97.08,-12.89 c -0.88,0 -1.73,-0.46 -2.18,-1.28 -0.67,-1.21 -0.24,-2.73 0.96,-3.4 5.63,-3.15 11.13,-6.8 16.33,-10.84 1.09,-0.85 2.66,-0.65 3.51,0.44 0.85,1.09 0.65,2.66 -0.44,3.51 -5.4,4.19 -11.11,7.98 -16.96,11.25 -0.39,0.22 -0.81,0.32 -1.22,0.32 z M 654.5,709.39 c -0.43,0 -0.87,-0.11 -1.26,-0.34 -5.79,-3.4 -11.48,-7.16 -16.89,-11.18 -1.11,-0.82 -1.34,-2.39 -0.52,-3.5 0.82,-1.11 2.39,-1.34 3.5,-0.52 5.27,3.91 10.81,7.58 16.45,10.88 1.19,0.7 1.59,2.23 0.89,3.42 -0.47,0.79 -1.3,1.23 -2.16,1.23 z m -718.38,-4.04 c -0.66,0 -1.32,-0.26 -1.81,-0.77 -0.95,-1 -0.92,-2.58 0.08,-3.53 5.01,-4.78 9.91,-9.41 14.57,-13.75 1.01,-0.94 2.59,-0.89 3.53,0.12 0.94,1.01 0.89,2.59 -0.12,3.53 -4.65,4.34 -9.53,8.95 -14.53,13.72 -0.48,0.46 -1.11,0.69 -1.73,0.69 z m 1470.92,-1.51 c -0.65,0 -1.3,-0.25 -1.79,-0.76 -0.96,-0.99 -0.94,-2.57 0.05,-3.54 4.56,-4.43 9.32,-9.16 14.16,-14.05 0.97,-0.98 2.55,-0.99 3.54,-0.02 0.99,0.97 0.99,2.55 0.02,3.54 -4.87,4.92 -9.66,9.67 -14.23,14.12 -0.49,0.47 -1.12,0.71 -1.74,0.71 z M 169.53,694.57 c -0.1,0 -0.19,0 -0.29,-0.02 -1.37,-0.16 -2.36,-1.4 -2.2,-2.77 0.79,-6.8 2.54,-13.51 5.22,-19.96 0.53,-1.28 1.99,-1.88 3.27,-1.35 1.27,0.53 1.88,1.99 1.35,3.27 -2.5,6.01 -4.14,12.28 -4.87,18.61 -0.15,1.27 -1.23,2.21 -2.48,2.21 z m 934.39,-8.82 c -0.29,0 -0.58,-0.05 -0.86,-0.15 -1.3,-0.48 -1.96,-1.91 -1.49,-3.21 1.58,-4.3 3.25,-8.72 4.87,-13 l 0.12,-0.32 c 0.69,-1.83 1.37,-3.63 2.03,-5.41 0.48,-1.29 1.92,-1.95 3.21,-1.47 1.29,0.48 1.95,1.92 1.47,3.21 -0.67,1.79 -1.35,3.6 -2.04,5.43 l -0.12,0.32 c -1.62,4.27 -3.29,8.68 -4.86,12.96 -0.37,1.01 -1.33,1.64 -2.35,1.64 z M 408.7,682.2 c -0.15,0 -0.31,-0.01 -0.46,-0.04 -1.36,-0.25 -2.25,-1.56 -2,-2.92 0.28,-1.49 0.42,-3.02 0.42,-4.54 0,-4.55 -1.26,-9.02 -3.66,-12.92 -0.72,-1.18 -0.35,-2.72 0.82,-3.44 1.18,-0.72 2.72,-0.35 3.44,0.82 2.87,4.68 4.39,10.06 4.39,15.53 0,1.83 -0.17,3.67 -0.51,5.46 -0.23,1.2 -1.28,2.04 -2.45,2.04 z m 122.75,-0.71 c -1.32,0 -2.42,-1.03 -2.49,-2.36 -0.08,-1.38 0.98,-2.56 2.36,-2.64 6.46,-0.36 13.09,-1.01 19.69,-1.94 1.37,-0.2 2.63,0.76 2.82,2.13 0.19,1.37 -0.76,2.63 -2.13,2.82 -6.74,0.94 -13.5,1.61 -20.1,1.98 h -0.14 z m -39.89,-1.65 c -0.11,0 -0.23,0 -0.34,-0.02 -6.5,-0.89 -13.18,-2.1 -19.88,-3.6 -1.35,-0.3 -2.2,-1.64 -1.89,-2.99 0.3,-1.35 1.64,-2.19 2.99,-1.89 6.56,1.47 13.11,2.65 19.47,3.53 1.37,0.19 2.32,1.45 2.14,2.82 -0.17,1.25 -1.24,2.16 -2.47,2.16 z m 360.31,-1.79 c -0.52,0 -1.04,-0.16 -1.49,-0.5 -1.11,-0.83 -1.34,-2.39 -0.51,-3.5 2.67,-3.58 5.24,-7.35 7.65,-11.22 1.06,-1.71 2.12,-3.48 3.15,-5.26 0.69,-1.19 2.22,-1.6 3.42,-0.91 1.2,0.69 1.6,2.22 0.91,3.42 -1.06,1.83 -2.15,3.65 -3.24,5.4 -2.48,3.99 -5.13,7.88 -7.88,11.57 -0.49,0.66 -1.24,1.01 -2.01,1.01 z m -243.7,-6.46 c -0.64,0 -1.27,-0.24 -1.76,-0.73 l -3.23,-3.21 -12.1,3.33 c -1.33,0.37 -2.71,-0.42 -3.07,-1.75 -0.37,-1.33 0.42,-2.71 1.75,-3.07 l 13.5,-3.71 c 0.86,-0.24 1.79,0 2.43,0.64 l 4.26,4.23 c 0.98,0.97 0.98,2.56 0.01,3.54 -0.49,0.49 -1.13,0.74 -1.77,0.74 z m -627.89,-6.86 c -0.69,0 -1.38,-0.29 -1.88,-0.85 -0.91,-1.04 -0.81,-2.62 0.23,-3.53 5.14,-4.52 10.24,-8.93 15.18,-13.11 1.05,-0.89 2.63,-0.76 3.52,0.29 0.89,1.05 0.76,2.63 -0.29,3.52 -4.91,4.16 -9.99,8.55 -15.11,13.05 -0.47,0.42 -1.06,0.62 -1.65,0.62 z m 1468.68,-3.8 c -0.61,0 -1.23,-0.22 -1.71,-0.68 -1.01,-0.95 -1.06,-2.53 -0.11,-3.53 4.14,-4.41 8.6,-9.19 13.63,-14.62 0.94,-1.01 2.52,-1.07 3.53,-0.13 1.01,0.94 1.07,2.52 0.13,3.53 -5.04,5.44 -9.5,10.23 -13.65,14.64 -0.49,0.52 -1.16,0.79 -1.82,0.79 z M 437.87,659.97 c -0.91,0 -1.78,-0.5 -2.23,-1.36 l -9.14,-17.79 c -0.63,-1.23 -0.15,-2.73 1.08,-3.37 1.23,-0.63 2.74,-0.15 3.37,1.08 l 9.14,17.79 c 0.63,1.23 0.15,2.74 -1.08,3.37 -0.37,0.19 -0.76,0.28 -1.14,0.28 z m -66.78,-16.42 c -0.31,0 -0.62,-0.06 -0.93,-0.18 l -8.52,-3.42 c -3.59,-1.44 -6.87,-2.73 -10.03,-3.93 -1.29,-0.49 -1.94,-1.93 -1.45,-3.23 0.49,-1.29 1.93,-1.94 3.23,-1.45 3.19,1.21 6.5,2.51 10.12,3.96 l 8.52,3.42 c 1.28,0.51 1.9,1.97 1.39,3.25 -0.39,0.98 -1.33,1.57 -2.32,1.57 z m -172.81,-0.01 c -0.71,0 -1.42,-0.31 -1.92,-0.9 -0.88,-1.06 -0.74,-2.64 0.32,-3.52 5.13,-4.28 10.85,-8.12 17.01,-11.41 1.22,-0.65 2.73,-0.19 3.38,1.03 0.65,1.22 0.19,2.73 -1.03,3.38 -5.86,3.13 -11.29,6.77 -16.16,10.84 -0.47,0.39 -1.04,0.58 -1.6,0.58 z m 925.7,-14.33 c -0.25,0 -0.5,-0.04 -0.75,-0.12 -1.32,-0.41 -2.05,-1.81 -1.64,-3.13 2.03,-6.5 3.84,-12.7 5.54,-18.94 l 0.04,-0.15 c 0.35,-1.33 1.72,-2.13 3.05,-1.78 1.34,0.35 2.13,1.72 1.78,3.05 l -0.06,0.21 c -1.71,6.28 -3.54,12.53 -5.59,19.1 -0.33,1.07 -1.32,1.75 -2.39,1.75 z M 26.51,626.49 c -0.75,0 -1.49,-0.33 -1.98,-0.97 -0.84,-1.09 -0.64,-2.66 0.46,-3.51 5.38,-4.14 10.78,-8.19 16.07,-12.03 1.11,-0.81 2.68,-0.56 3.49,0.55 0.81,1.12 0.56,2.68 -0.55,3.49 -5.25,3.81 -10.62,7.83 -15.96,11.95 -0.45,0.35 -0.99,0.52 -1.52,0.52 z m 852.94,-1.47 c -0.28,0 -0.57,-0.05 -0.84,-0.15 -1.3,-0.47 -1.98,-1.9 -1.51,-3.2 2.12,-5.92 4.16,-12.27 6.05,-18.88 0.38,-1.33 1.76,-2.1 3.09,-1.72 1.33,0.38 2.1,1.76 1.72,3.09 -1.92,6.72 -3.99,13.17 -6.15,19.19 -0.37,1.02 -1.33,1.66 -2.35,1.66 z m -565.06,-0.95 c -0.19,0 -0.39,-0.02 -0.59,-0.07 -6.65,-1.61 -13.18,-2.87 -19.39,-3.74 -1.37,-0.19 -2.32,-1.46 -2.13,-2.82 0.19,-1.36 1.46,-2.32 2.82,-2.13 6.38,0.89 13.06,2.18 19.87,3.83 1.34,0.32 2.17,1.68 1.84,3.02 -0.28,1.14 -1.3,1.91 -2.43,1.91 z m -61.67,-3.92 c -1.22,0 -2.28,-0.89 -2.47,-2.13 -0.2,-1.37 0.74,-2.64 2.1,-2.84 3.96,-0.59 8.03,-1.02 12.1,-1.25 2.69,-0.16 5.45,-0.24 8.2,-0.24 1.38,0 2.5,1.12 2.5,2.5 0,1.38 -1.12,2.5 -2.5,2.5 -2.66,0 -5.32,0.08 -7.91,0.23 -3.92,0.23 -7.84,0.64 -11.65,1.21 -0.12,0.02 -0.25,0.03 -0.37,0.03 z m 157.74,-13.56 c -0.91,0 -1.78,-0.5 -2.23,-1.36 l -6.25,-12.17 c -0.94,-1.83 -1.94,-3.65 -2.97,-5.43 -0.7,-1.19 -0.29,-2.72 0.9,-3.42 1.19,-0.7 2.72,-0.29 3.42,0.9 1.08,1.85 2.12,3.76 3.1,5.66 l 6.25,12.17 c 0.63,1.23 0.15,2.73 -1.08,3.37 -0.37,0.19 -0.75,0.28 -1.14,0.28 z M 75.59,591.99 c -0.83,0 -1.64,-0.41 -2.11,-1.16 -0.74,-1.17 -0.39,-2.71 0.77,-3.45 5.7,-3.62 11.47,-7.14 17.15,-10.47 1.19,-0.7 2.72,-0.3 3.42,0.89 0.7,1.19 0.3,2.72 -0.89,3.42 -5.63,3.3 -11.35,6.79 -17,10.38 -0.42,0.26 -0.88,0.39 -1.34,0.39 z m 1063.17,-20.9 c -0.16,0 -0.33,-0.02 -0.49,-0.05 -1.35,-0.27 -2.23,-1.58 -1.96,-2.94 1.29,-6.51 2.48,-13.1 3.53,-19.59 0.22,-1.36 1.5,-2.29 2.87,-2.07 1.36,0.22 2.29,1.5 2.07,2.87 -1.06,6.55 -2.26,13.2 -3.56,19.76 -0.24,1.19 -1.28,2.01 -2.45,2.01 z m -243.99,-4.01 c -0.16,0 -0.33,-0.02 -0.49,-0.05 -1.35,-0.27 -2.23,-1.59 -1.96,-2.94 1.16,-5.78 2.34,-12.01 3.72,-19.6 0.25,-1.36 1.55,-2.26 2.91,-2.01 1.36,0.25 2.26,1.55 2.01,2.91 -1.39,7.62 -2.57,13.88 -3.73,19.69 -0.24,1.19 -1.28,2.01 -2.45,2.01 z m -766.84,-4.37 c -0.93,0 -1.82,-0.52 -2.25,-1.41 -0.6,-1.24 -0.08,-2.74 1.17,-3.34 6.3,-3.04 12.46,-5.84 18.33,-8.32 1.27,-0.54 2.74,0.06 3.28,1.33 0.54,1.27 -0.06,2.74 -1.33,3.28 -5.79,2.45 -11.88,5.21 -18.1,8.22 -0.35,0.17 -0.72,0.25 -1.08,0.25 z m 247.52,-4.18 c -0.56,0 -1.12,-0.19 -1.58,-0.57 -3.26,-2.67 -6.71,-5.16 -10.23,-7.39 -2.02,-1.27 -4.02,-2.48 -5.95,-3.59 -1.2,-0.69 -1.61,-2.22 -0.92,-3.41 0.69,-1.2 2.22,-1.61 3.41,-0.92 1.99,1.15 4.06,2.39 6.13,3.7 3.7,2.34 7.31,4.95 10.73,7.75 1.07,0.88 1.22,2.45 0.35,3.52 -0.49,0.6 -1.21,0.92 -1.93,0.92 z M 183.78,540.96 c -1.07,0 -2.07,-0.7 -2.39,-1.78 -0.4,-1.32 0.35,-2.72 1.67,-3.11 6.48,-1.95 13.02,-3.73 19.43,-5.29 1.34,-0.33 2.69,0.5 3.02,1.84 0.33,1.34 -0.5,2.69 -1.84,3.02 -6.32,1.54 -12.77,3.29 -19.17,5.22 -0.24,0.07 -0.48,0.11 -0.72,0.11 z m 138.06,-8.2 c -0.2,0 -0.4,-0.02 -0.6,-0.07 -2.86,-0.7 -5.93,-1.39 -9.13,-2.04 -4.74,-0.97 -7.6,-1.5 -10.22,-1.9 -1.37,-0.21 -2.3,-1.48 -2.1,-2.85 0.21,-1.36 1.47,-2.31 2.85,-2.1 2.71,0.41 5.65,0.96 10.48,1.95 3.27,0.67 6.4,1.37 9.32,2.08 1.34,0.33 2.16,1.68 1.83,3.02 -0.28,1.14 -1.3,1.91 -2.43,1.91 z m -79.42,-4.14 c -1.25,0 -2.34,-0.94 -2.48,-2.22 -0.16,-1.37 0.83,-2.61 2.2,-2.77 6.2,-0.7 12.36,-1.19 18.3,-1.45 l 1.82,-0.07 c 1.33,-0.03 2.54,1.02 2.59,2.4 0.05,1.38 -1.03,2.54 -2.4,2.59 l -1.79,0.07 c -5.83,0.25 -11.87,0.73 -17.96,1.42 -0.1,0.01 -0.19,0.02 -0.28,0.02 z m 904.84,-16.88 h -0.22 c -1.38,-0.12 -2.39,-1.33 -2.27,-2.71 0.58,-6.56 1.04,-13.24 1.39,-19.86 0.07,-1.38 1.26,-2.44 2.63,-2.37 1.38,0.07 2.44,1.25 2.37,2.63 -0.35,6.68 -0.82,13.42 -1.4,20.04 -0.11,1.3 -1.21,2.28 -2.49,2.28 z m -241.68,-3.67 c -0.15,0 -0.31,-0.01 -0.46,-0.04 -1.36,-0.25 -2.25,-1.56 -2,-2.92 1.36,-7.25 2.62,-13.69 3.88,-19.68 0.28,-1.35 1.61,-2.22 2.96,-1.94 1.35,0.28 2.22,1.61 1.94,2.96 -1.25,5.95 -2.51,12.35 -3.86,19.57 -0.22,1.2 -1.27,2.04 -2.45,2.04 z m 243.68,-56.27 c -1.35,0 -2.46,-1.08 -2.5,-2.44 -0.18,-6.8 -0.52,-13.47 -1.02,-19.84 -0.11,-1.38 0.92,-2.58 2.3,-2.69 1.39,-0.1 2.58,0.92 2.69,2.3 0.51,6.45 0.85,13.21 1.03,20.1 0.04,1.38 -1.05,2.53 -2.43,2.56 h -0.07 z m -230.22,-2.17 c -0.24,0 -0.47,-0.03 -0.71,-0.1 -1.32,-0.39 -2.08,-1.78 -1.69,-3.11 0.99,-3.33 2.02,-6.64 3.07,-9.83 1.13,-3.42 2.18,-6.47 3.21,-9.31 0.47,-1.3 1.9,-1.97 3.2,-1.5 1.3,0.47 1.97,1.91 1.5,3.2 -1.01,2.8 -2.05,5.8 -3.16,9.17 -1.04,3.14 -2.05,6.4 -3.03,9.68 -0.32,1.09 -1.32,1.79 -2.4,1.79 z m 23.38,-55.07 c -0.43,0 -0.87,-0.11 -1.27,-0.35 -1.19,-0.7 -1.58,-2.24 -0.88,-3.43 1.7,-2.86 3.47,-5.69 5.26,-8.41 0.76,-1.16 1.55,-2.3 2.34,-3.43 l 0.1,-0.14 c 0.44,-0.64 0.9,-1.29 1.34,-1.95 l 1.54,-2.37 c 0.06,-0.1 0.13,-0.19 0.21,-0.28 l 0.44,-0.5 c 0.91,-1.04 2.48,-1.15 3.53,-0.25 1.04,0.91 1.15,2.48 0.25,3.53 l -0.32,0.37 -1.46,2.24 c -0.47,0.71 -0.95,1.39 -1.41,2.06 l -0.1,0.14 c -0.77,1.1 -1.53,2.2 -2.27,3.33 -1.75,2.65 -3.47,5.42 -5.13,8.21 -0.47,0.79 -1.3,1.22 -2.15,1.22 z m 198.36,-1.94 c -1.07,0 -2.06,-0.7 -2.39,-1.78 -2,-6.62 -4.03,-11.77 -6.78,-17.21 l -0.46,-0.91 c -0.63,-1.23 -0.15,-2.74 1.08,-3.37 1.23,-0.63 2.74,-0.15 3.37,1.08 l 0.48,0.93 c 2.89,5.72 5.01,11.11 7.1,18.02 0.4,1.32 -0.35,2.72 -1.67,3.12 -0.24,0.07 -0.49,0.11 -0.73,0.11 z M 978.95,352.84 c -0.8,0 -1.58,-0.38 -2.07,-1.09 -0.78,-1.14 -0.49,-2.7 0.65,-3.47 l 0.08,-0.05 c 0.22,-0.15 0.5,-0.37 0.8,-0.6 l 1.94,-1.44 c 4.6,-3.22 9.33,-6.2 14.12,-8.9 1.2,-0.68 2.73,-0.25 3.41,0.95 0.68,1.2 0.25,2.73 -0.95,3.41 -4.65,2.62 -9.25,5.52 -13.66,8.61 l -1.83,1.36 c -0.36,0.27 -0.69,0.52 -0.98,0.73 0,0 -0.1,0.07 -0.11,0.07 -0.43,0.29 -0.92,0.44 -1.41,0.44 z m 129.79,-9.89 c -0.63,0 -1.25,-0.23 -1.74,-0.71 l -0.48,-0.47 -2.03,-1.41 c -2.83,-1.97 -5.82,-3.82 -8.9,-5.51 -1.26,-0.69 -2.58,-1.37 -4.16,-2.14 l -0.81,-0.4 c -1.24,-0.6 -1.76,-2.1 -1.15,-3.34 0.6,-1.24 2.1,-1.76 3.34,-1.15 l 0.81,0.4 c 1.66,0.81 3.05,1.52 4.38,2.25 3.24,1.77 6.39,3.72 9.36,5.79 l 2.2,1.53 c 0.11,0.08 0.22,0.16 0.31,0.26 l 0.63,0.61 c 0.99,0.96 1.01,2.54 0.05,3.54 -0.49,0.5 -1.14,0.76 -1.79,0.76 z m -75.81,-15.18 c -1.15,0 -2.19,-0.8 -2.44,-1.98 -0.29,-1.35 0.57,-2.68 1.92,-2.97 0.76,-0.16 1.5,-0.32 2.22,-0.47 l 0.3,-0.06 c 0.9,-0.19 1.77,-0.37 2.66,-0.56 l 2.74,-0.62 c 0.12,-0.03 0.25,-0.05 0.38,-0.06 l 2.84,-0.2 c 0.43,-0.03 0.89,-0.07 1.36,-0.11 l 0.19,-0.02 c 1.63,-0.13 3.44,-0.28 5.44,-0.36 0.72,-0.03 1.43,-0.05 2.14,-0.07 1.37,-0.06 2.53,1.06 2.56,2.44 0.04,1.38 -1.06,2.53 -2.44,2.56 -0.68,0.02 -1.37,0.04 -2.06,0.07 -1.9,0.08 -3.66,0.22 -5.21,0.35 l -0.22,0.02 c -0.48,0.04 -0.96,0.08 -1.41,0.11 l -2.65,0.19 -2.57,0.58 c -0.92,0.2 -1.81,0.38 -2.72,0.57 l -0.3,0.06 c -0.71,0.15 -1.44,0.3 -2.19,0.46 -0.18,0.04 -0.35,0.06 -0.53,0.06 z"
           id="path109" />
        <path
           class="cls-10"
           d="m 646.37,651.71 c -0.92,0 -1.8,-0.51 -2.24,-1.38 -0.62,-1.24 -0.11,-2.74 1.12,-3.35 5.85,-2.92 11.75,-6.07 17.51,-9.35 1.2,-0.68 2.73,-0.27 3.41,0.93 0.68,1.2 0.27,2.73 -0.93,3.41 -5.85,3.33 -11.82,6.52 -17.76,9.48 -0.36,0.18 -0.74,0.26 -1.11,0.26 z m -71.73,-29.26 c -0.96,0 -1.88,-0.56 -2.29,-1.5 -2.66,-6.12 -5.12,-12.45 -7.3,-18.82 -0.45,-1.31 0.25,-2.73 1.55,-3.18 1.31,-0.45 2.73,0.25 3.18,1.55 2.14,6.24 4.55,12.45 7.16,18.45 0.55,1.27 -0.03,2.74 -1.3,3.29 -0.33,0.14 -0.66,0.21 -1,0.21 z m 123.01,-1.75 c -0.78,0 -1.54,-0.36 -2.03,-1.04 -0.8,-1.12 -0.55,-2.68 0.57,-3.49 5.33,-3.83 10.67,-7.86 15.84,-11.99 1.08,-0.86 2.65,-0.68 3.51,0.4 0.86,1.08 0.68,2.65 -0.4,3.51 -5.24,4.18 -10.64,8.27 -16.04,12.14 -0.44,0.32 -0.95,0.47 -1.46,0.47 z m 45.93,-38.52 c -0.65,0 -1.3,-0.25 -1.79,-0.76 -0.96,-0.99 -0.94,-2.57 0.05,-3.54 4.73,-4.61 9.4,-9.39 13.89,-14.22 0.94,-1.01 2.52,-1.07 3.53,-0.13 1.01,0.94 1.07,2.52 0.13,3.53 -4.54,4.88 -9.27,9.73 -14.06,14.4 -0.49,0.47 -1.12,0.71 -1.74,0.71 z M 557.33,565.16 c -1.18,0 -2.23,-0.84 -2.46,-2.05 -1.2,-6.51 -2.2,-13.22 -2.97,-19.94 -0.16,-1.37 0.83,-2.61 2.2,-2.77 1.37,-0.16 2.61,0.83 2.77,2.2 0.76,6.61 1.74,13.2 2.92,19.6 0.25,1.36 -0.65,2.66 -2.01,2.91 -0.15,0.03 -0.31,0.04 -0.46,0.04 z m 225.93,-27.91 c -0.53,0 -1.05,-0.17 -1.51,-0.51 -1.1,-0.83 -1.32,-2.4 -0.49,-3.5 3.95,-5.22 7.8,-10.6 11.46,-15.99 l 0.12,-0.18 c 0.78,-1.14 2.34,-1.43 3.48,-0.65 1.14,0.78 1.43,2.34 0.65,3.48 l -0.1,0.15 c -3.71,5.47 -7.62,10.92 -11.61,16.2 -0.49,0.65 -1.24,0.99 -2,0.99 z M 552.33,505.46 h -0.02 c -1.38,-0.01 -2.49,-1.14 -2.48,-2.52 0.06,-6.61 0.3,-13.38 0.73,-20.12 0.09,-1.38 1.24,-2.42 2.65,-2.34 1.38,0.09 2.42,1.28 2.34,2.65 -0.42,6.65 -0.67,13.33 -0.72,19.84 -0.01,1.37 -1.13,2.48 -2.5,2.48 z m 262.55,-19.08 c -0.36,0 -0.73,-0.08 -1.08,-0.25 -1.25,-0.6 -1.77,-2.09 -1.17,-3.34 2.89,-6.03 5.52,-12.15 7.8,-18.18 0.49,-1.29 1.94,-1.94 3.22,-1.45 1.29,0.49 1.94,1.93 1.45,3.22 -2.34,6.16 -5.02,12.41 -7.97,18.57 -0.43,0.9 -1.32,1.42 -2.26,1.42 z M 557.64,445.76 c -0.14,0 -0.27,-0.01 -0.41,-0.03 -1.36,-0.23 -2.28,-1.51 -2.06,-2.88 1.09,-6.56 2.35,-13.2 3.75,-19.76 0.29,-1.35 1.62,-2.21 2.97,-1.92 1.35,0.29 2.21,1.62 1.92,2.97 -1.39,6.48 -2.64,13.06 -3.71,19.53 -0.2,1.22 -1.26,2.09 -2.46,2.09 z m 275.51,-16.31 c -0.13,0 -0.26,0 -0.39,-0.03 -1.36,-0.21 -2.3,-1.49 -2.09,-2.85 1.02,-6.57 1.68,-13.17 1.96,-19.62 0.06,-1.38 1.22,-2.43 2.61,-2.39 1.38,0.06 2.45,1.23 2.39,2.61 -0.29,6.63 -0.96,13.41 -2.01,20.17 -0.19,1.23 -1.26,2.12 -2.47,2.12 z M 571.86,387.5 c -0.26,0 -0.53,-0.04 -0.79,-0.13 -1.31,-0.44 -2.02,-1.85 -1.58,-3.16 2.17,-6.48 4.52,-12.84 7,-18.92 0.52,-1.28 1.98,-1.89 3.26,-1.37 1.28,0.52 1.89,1.98 1.37,3.26 -2.44,5.98 -4.76,12.24 -6.89,18.62 -0.35,1.05 -1.33,1.71 -2.37,1.71 z m 260.19,-17.72 c -1.16,0 -2.2,-0.82 -2.45,-2 -1.31,-6.4 -3.05,-12.79 -5.16,-18.98 -0.45,-1.31 0.25,-2.73 1.56,-3.17 1.3,-0.45 2.73,0.25 3.17,1.56 2.18,6.39 3.97,12.98 5.32,19.59 0.28,1.35 -0.6,2.67 -1.95,2.95 -0.17,0.03 -0.34,0.05 -0.5,0.05 z m -235.4,-36.82 c -0.44,0 -0.89,-0.12 -1.3,-0.36 -1.18,-0.72 -1.56,-2.25 -0.84,-3.43 3.58,-5.89 7.39,-11.54 11.33,-16.78 0.83,-1.1 2.4,-1.33 3.5,-0.5 1.1,0.83 1.33,2.4 0.5,3.5 -3.84,5.11 -7.56,10.62 -11.05,16.37 -0.47,0.77 -1.29,1.2 -2.14,1.2 z m 212.49,-18.22 c -0.8,0 -1.59,-0.38 -2.07,-1.09 -3.69,-5.42 -7.78,-10.61 -12.16,-15.4 -0.93,-1.02 -0.86,-2.6 0.16,-3.53 1.02,-0.93 2.6,-0.86 3.53,0.16 4.54,4.97 8.79,10.34 12.61,15.96 0.78,1.14 0.48,2.7 -0.66,3.47 -0.43,0.29 -0.92,0.43 -1.4,0.43 z M 635.38,287.52 c -0.73,0 -1.45,-0.32 -1.95,-0.93 -0.87,-1.07 -0.7,-2.65 0.37,-3.52 5.33,-4.31 10.94,-8.22 16.69,-11.62 1.19,-0.7 2.72,-0.31 3.42,0.88 0.7,1.19 0.31,2.72 -0.88,3.43 -5.54,3.28 -10.95,7.05 -16.09,11.21 -0.46,0.37 -1.02,0.56 -1.57,0.56 z m 130.4,-13.53 c -0.43,0 -0.86,-0.11 -1.25,-0.34 -0.74,-0.43 -1.48,-0.84 -2.22,-1.25 -5.04,-2.78 -10.24,-5.17 -15.46,-7.11 -1.29,-0.48 -1.95,-1.92 -1.47,-3.21 0.48,-1.29 1.92,-1.95 3.21,-1.47 5.44,2.02 10.87,4.52 16.13,7.42 0.78,0.43 1.55,0.86 2.31,1.31 1.2,0.69 1.6,2.22 0.91,3.42 -0.46,0.8 -1.3,1.25 -2.17,1.25 z m -77.07,-12.71 c -1.15,0 -2.18,-0.79 -2.44,-1.96 -0.3,-1.35 0.55,-2.68 1.9,-2.98 6.7,-1.5 13.53,-2.34 20.29,-2.52 0.02,0 0.04,0 0.07,0 1.35,0 2.46,1.08 2.5,2.43 0.04,1.38 -1.05,2.53 -2.43,2.56 -6.44,0.17 -12.95,0.98 -19.34,2.4 -0.18,0.04 -0.37,0.06 -0.55,0.06 z"
           id="path110" />
      </g>
      <g
         id="g229">
        <path
           class="cls-6"
           d="m 351.93,820.08 -3.75,0.94 c 0,0 -0.07,0.02 -0.11,0.03 l -9.66,2.42 0.36,1.45 5.4,-1.36 c -17.18,11.46 -29.36,17.04 -45.16,20.86 -26.57,6.42 -57.03,-5.15 -70.83,-13 -0.72,-0.41 -1.63,-0.16 -2.04,0.56 -0.41,0.72 -0.16,1.64 0.56,2.04 11.29,6.42 33.43,15.25 55.85,15.25 5.76,0 11.55,-0.58 17.17,-1.94 16.13,-3.9 28.53,-9.56 45.94,-21.15 l -3.12,4.3 1.22,0.88 5.53,-7.63 c 0,0 0.01,0 0.02,-0.01 0.3,-0.2 0.49,-0.5 0.59,-0.82 l 2.05,-2.83 z"
           id="path85" />
        <path
           class="cls-6"
           d="m 1092.83,418.08 -1.44,-0.43 -1.44,4.86 c -0.65,-7.63 -2.07,-14.31 -4.35,-20.3 -3.84,-10.12 -10.35,-18.41 -18.32,-23.35 -9.1,-5.65 -20.35,-6.82 -29.36,-3.05 -0.76,0.32 -1.12,1.2 -0.8,1.96 0.32,0.76 1.2,1.13 1.96,0.81 8.12,-3.4 18.32,-2.31 26.62,2.83 7.41,4.6 13.48,12.36 17.1,21.87 2.24,5.9 3.63,12.53 4.23,20.16 l -2.34,-5.38 -1.38,0.6 5.55,12.79 0.94,-3.17 c 0.29,-0.29 0.47,-0.69 0.45,-1.13 0,-0.11 -0.01,-0.22 -0.02,-0.33 z"
           id="path83" />
        <path
           class="cls-6"
           d="m 618.99,417.47 c -0.32,0.16 -0.58,0.42 -0.73,0.78 -0.01,0.03 -0.02,0.05 -0.03,0.08 l -6.19,7.02 1.12,0.99 3.51,-3.98 c -9.96,26.38 -15.06,55.03 -14.77,83.15 0,0.82 0.68,1.48 1.5,1.48 h 0.02 c 0.83,0 1.49,-0.69 1.48,-1.52 -0.29,-27.82 4.78,-56.17 14.66,-82.26 l -0.14,5.58 1.5,0.04 0.34,-13.94 -2.28,2.58 z"
           id="path200" />
        <path
           class="cls-6"
           d="m 1167.02,647.81 -3.89,3.45 c 16.21,-30.52 25.25,-64.72 26.13,-99.22 0.02,-0.83 -0.63,-1.52 -1.46,-1.54 -0.01,0 -0.03,0 -0.04,0 -0.81,0 -1.48,0.65 -1.5,1.46 -0.87,34.19 -9.86,68.07 -25.98,98.27 l 0.83,-5.62 -1.48,-0.22 -2.04,13.8 2.54,-2.26 c 0.35,-0.11 0.67,-0.35 0.87,-0.7 0.03,-0.05 0.05,-0.09 0.07,-0.14 l 6.95,-6.16 z"
           id="path201" />
        <path
           class="cls-6"
           d="m 885.47,373.65 2.8,-8.86 -1.43,-0.45 -1.57,4.98 c -2.14,-36.59 -15.65,-72.93 -38.31,-102.78 -0.5,-0.66 -1.44,-0.79 -2.1,-0.29 -0.66,0.5 -0.79,1.44 -0.29,2.1 22.38,29.49 35.69,65.39 37.73,101.53 l -2.17,-5.25 -1.39,0.57 5.33,12.89 1.02,-3.24 c 0.25,-0.28 0.4,-0.65 0.39,-1.05 0,-0.05 0,-0.1 0,-0.15 z"
           id="path202" />
      </g>
    </g>
  </g>
</svg>
